{"title":"Mere Humsafar VIDEO Song - Mithoon/Tulsi Kumar - All Is Well -","uid":12254566,"size":13752045,"categoryP":"video","categoryS":"music_videos","magnet":"?xt=urn:btih:2c00abe435a68adf396ba2a69f00533cd8731528&amp;dn=Mere+Humsafar+VIDEO+Song+-+Mithoon%2FTulsi+Kumar+-+All+Is+Well+-&amp;tr=udp%3A%2F%2Ftracker.openbittorrent.com%3A80&amp;tr=udp%3A%2F%2Fopen.demonii.com%3A1337&amp;tr=udp%3A%2F%2Ftracker.coppersurfer.tk%3A6969&amp;tr=udp%3A%2F%2Fexodus.desync.com%3A6969","seeders":1,"leechers":0,"uploader":"Aainul","files":3,"time":1440079667,"description":"Seeding From High Speed Seedbox\n\nMere Humsafar VIDEO Song - Mithoon &amp; Tulsi Kumar - All Is Well - 720p HEVC - truHD HEVC\n\nSource: WEB-DL\n\nSource File Info:\n\nGeneral\nFormat : MPEG-4\nFormat profile : Base Media / Version 2\nCodec ID : mp42\nFile size : 39.9 MiB\nDuration : 2mn 12s\nOverall bit rate mode : Variable\nOverall bit rate : 2 528 Kbps\nEncoded date : UTC 2015-08-02 15:05:56\nTagged date : UTC 2015-08-02 15:05:56\n\nVideo\nID : 1\nFormat : AVC\nFormat/Info : Advanced Video Codec\nFormat profile : &lt;a class=&quot;__cf_email__&quot; href=&quot;/cdn-cgi/l/email-protection&quot; data-cfemail=&quot;5b13323c331b1768756a&quot;&gt;[email&amp;#160;protected]&lt;/a&gt;&lt;script data-cfhash='f9e31' type=&quot;text/javascript&quot;&gt;\n/* &lt;![CDATA[ */!function(){try{var t=&quot;currentScript&quot;in document?document.currentScript:function(){for(var t=document.getElementsByTagName(&quot;script&quot;),e=t.length;e--;)if(t[e].getAttribute(&quot;data-cfhash&quot;))return t[e]}();if(t&amp;&amp;t.previousSibling){var e,r,n,i,c=t.previousSibling,a=c.getAttribute(&quot;data-cfemail&quot;);if(a){for(e=&quot;&quot;,r=parseInt(a.substr(0,2),16),n=2;a.length-n;n+=2)i=parseInt(a.substr(n,2),16)^r,e+=String.fromCharCode(i);e=document.createTextNode(e),c.parentNode.replaceChild(e,c)}t.parentNode.removeChild(t);}}catch(u){}}()/* ]]&gt; */&lt;/script&gt;\nFormat settings, CABAC : Yes\nFormat settings, ReFrames : 1 frame\nFormat settings, GOP : M=1, N=60\nCodec ID : avc1\nCodec ID/Info : Advanced Video Coding\nDuration : 2mn 12s\nBit rate : 2 334 Kbps\nMaximum bit rate : 7 905 Kbps\nWidth : 1 280 pixels\nHeight : 720 pixels\nDisplay aspect ratio : 16:9\nFrame rate mode : Constant\nFrame rate : 24.000 fps\nColor space : YUV\nChroma subsampling : 4:2:0\nBit depth : 8 bits\nScan type : Progressive\nBits/(Pixel*Frame) : 0.106\nStream size : 36.8 MiB (92%)\nTagged date : UTC 2015-08-02 15:05:59\n\nAudio\nID : 2\nFormat : AAC\nFormat/Info : Advanced Audio Codec\nFormat profile : LC\nCodec ID : 40\nDuration : 2mn 12s\nBit rate mode : Variable\nBit rate : 192 Kbps\nMaximum bit rate : 202 Kbps\nChannel(s) : 2 channels\nChannel positions : Front: L R\nSampling rate : 44.1 KHz\nCompression mode : Lossy\nStream size : 3.03 MiB (8%)\nTitle : IsoMedia File Produced by Google, 5-11-2011\nLanguage : English\nEncoded date : UTC 2015-08-02 15:05:58\nTagged date : UTC 2015-08-02 15:05:59\n\n\nEncoder: truHD HEVC Encoding Team\n\nEncoded File Info:\n\nGeneral\nFormat : MPEG-4\nCodec ID : M4V \nFile size : 12.9 MiB\nDuration : 2mn 12s\nOverall bit rate : 816 Kbps\nEncoded date : UTC 2015-08-18 20:48:47\nTagged date : UTC 2015-08-18 20:48:47\n\nVideo\nID : 1\nFormat : HEVC\nFormat/Info : High Efficiency Video Coding\nCodec ID : hvc1\nCodec ID/Info : High Efficiency Video Coding\nDuration : 2mn 11s\nSource duration : 2mn 11s\nBit rate : 647 Kbps\nMaximum bit rate : 2 294 Kbps\nWidth : 1 280 pixels\nHeight : 720 pixels\nDisplay aspect ratio : 16:9\nFrame rate mode : Constant\nFrame rate : 24.000 fps\nBits/(Pixel*Frame) : 0.029\nStream size : 10.1 MiB (79%)\nSource stream size : 10.8 MiB (84%)\nEncoded date : UTC 2015-08-18 20:48:47\nTagged date : UTC 2015-08-18 20:48:49\n\nAudio\nID : 2\nFormat : AC-3\nFormat/Info : Audio Coding 3\nMode extension : CM (complete main)\nFormat settings, Endianness : Big\nCodec ID : ac-3\nDuration : 2mn 12s\nBit rate mode : Constant\nBit rate : 128 Kbps\nMaximum bit rate : 134 Kbps\nChannel(s) : 2 channels\nChannel positions : Front: L R\nSampling rate : 44.1 KHz\nBit depth : 16 bits\nCompression mode : Lossy\nStream size : 2.02 MiB (16%)\nTitle : &lt;a class=&quot;__cf_email__&quot; href=&quot;/cdn-cgi/l/email-protection&quot; data-cfemail=&quot;a8c9cb9b8bc9ddccc1c7e8eff8e9eb98869d869a85ecedfe85dacdde9b909f85cf9b99989a98919c85c5c9dbdccdda&quot;&gt;[email&amp;#160;protected]&lt;/a&gt;&lt;script data-cfhash='f9e31' type=&quot;text/javascript&quot;&gt;\n/* &lt;![CDATA[ */!function(){try{var t=&quot;currentScript&quot;in document?document.currentScript:function(){for(var t=document.getElementsByTagName(&quot;script&quot;),e=t.length;e--;)if(t[e].getAttribute(&quot;data-cfhash&quot;))return t[e]}();if(t&amp;&amp;t.previousSibling){var e,r,n,i,c=t.previousSibling,a=c.getAttribute(&quot;data-cfemail&quot;);if(a){for(e=&quot;&quot;,r=parseInt(a.substr(0,2),16),n=2;a.length-n;n+=2)i=parseInt(a.substr(n,2),16)^r,e+=String.fromCharCode(i);e=document.createTextNode(e),c.parentNode.replaceChild(e,c)}t.parentNode.removeChild(t);}}catch(u){}}()/* ]]&gt; */&lt;/script&gt;\nEncoded date : UTC 2015-08-18 20:48:48\nTagged date : UTC 2015-08-18 20:48:49\n\n\nScreenShots:\n &lt;a href=&quot;\nhttps://yuq.me/users/36/459/WTMK5UtngQ.jpg&quot; rel=&quot;nofollow&quot; target=&quot;_NEW&quot;&gt;\nhttps://yuq.me/users/36/459/WTMK5UtngQ.jpg&lt;/a&gt;\n\nLike Us On FB And Request Accepted @\n\nKickAssTorrents: https://kat.cr/user/Aainul/\nGloTorrents: https://glodls.to/user/Aainul\nThePirateBay: https://thepiratebay.vg/user/Aainul/\n1337x Torrents: http://1337.to/user/Aainul/\n\n\nNote: All Videos Uploaded By Me Are For Review Purpose. If You Like IT, Google IT And Buy IT - Thanks\n\n\nKing Regards\ntruHD HEVC Team\n\nShare Among Friends And Relatives","torrent":{"xt":"urn:btih:2c00abe435a68adf396ba2a69f00533cd8731528","amp;dn":"Mere+Humsafar+VIDEO+Song+-+Mithoon%2FTulsi+Kumar+-+All+Is+Well+-","amp;tr":["udp%3A%2F%2Ftracker.openbittorrent.com%3A80","udp%3A%2F%2Fopen.demonii.com%3A1337","udp%3A%2F%2Ftracker.coppersurfer.tk%3A6969","udp%3A%2F%2Fexodus.desync.com%3A6969"],"infoHash":"2c00abe435a68adf396ba2a69f00533cd8731528","infoHashBuffer":{"type":"Buffer","data":[44,0,171,228,53,166,138,223,57,107,162,166,159,0,83,60,216,115,21,40]},"announce":[],"urlList":[]}}